<svg xmlns="http://www.w3.org/2000/svg" xmlns:xlink="http://www.w3.org/1999/xlink" width="120" zoomAndPan="magnify" viewBox="0 0 90 30.000001" height="40" preserveAspectRatio="xMidYMid meet" version="1.0"><defs><clipPath id="6b69d785ff"><path d="M 1.914062 3.746094 L 88.285156 3.746094 L 88.285156 25.519531 L 1.914062 25.519531 Z M 1.914062 3.746094 " clip-rule="nonzero"/></clipPath></defs><g clip-path="url(#6b69d785ff)"><path fill="#000000" d="M 12.71875 3.746094 C 6.753906 3.746094 1.925781 8.617188 1.925781 14.632812 C 1.925781 20.648438 6.753906 25.519531 12.71875 25.519531 C 18.679688 25.519531 23.511719 20.648438 23.511719 14.632812 C 23.511719 8.617188 18.679688 3.746094 12.71875 3.746094 Z M 77.480469 3.746094 C 71.515625 3.746094 66.683594 8.617188 66.683594 14.632812 C 66.683594 20.648438 71.515625 25.519531 77.480469 25.519531 C 83.441406 25.519531 88.273438 20.648438 88.273438 14.632812 C 88.273438 8.617188 83.441406 3.746094 77.480469 3.746094 Z M 45.097656 3.746094 C 39.136719 3.746094 34.304688 8.617188 34.304688 14.632812 C 34.304688 20.648438 39.136719 25.519531 45.097656 25.519531 C 51.0625 25.519531 55.890625 20.648438 55.890625 14.632812 C 55.890625 8.617188 51.0625 3.746094 45.097656 3.746094 Z M 45.097656 3.746094 " fill-opacity="1" fill-rule="nonzero"/></g></svg>