<svg xmlns="http://www.w3.org/2000/svg" xmlns:xlink="http://www.w3.org/1999/xlink" width="50" zoomAndPan="magnify" viewBox="0 0 37.5 37.499999" height="50" preserveAspectRatio="xMidYMid meet" version="1.0"><defs><clipPath id="aad04dac5a"><path d="M 6.796875 2.8125 L 30.796875 2.8125 L 30.796875 35.0625 L 6.796875 35.0625 Z M 6.796875 2.8125 " clip-rule="nonzero"/></clipPath></defs><g clip-path="url(#aad04dac5a)"><path fill="#000000" d="M 29.121094 6.566406 L 24.820312 6.566406 L 24.820312 4.574219 C 24.820312 4.347656 24.777344 4.125 24.6875 3.914062 C 24.601562 3.703125 24.480469 3.519531 24.316406 3.355469 C 24.15625 3.195312 23.972656 3.070312 23.761719 2.984375 C 23.554688 2.894531 23.335938 2.851562 23.109375 2.851562 L 14.542969 2.851562 C 14.316406 2.851562 14.097656 2.894531 13.886719 2.984375 C 13.679688 3.070312 13.492188 3.195312 13.332031 3.355469 C 13.171875 3.519531 13.050781 3.703125 12.960938 3.914062 C 12.875 4.125 12.832031 4.347656 12.832031 4.574219 L 12.832031 6.566406 L 8.53125 6.566406 C 8.304688 6.566406 8.085938 6.609375 7.875 6.695312 C 7.667969 6.785156 7.480469 6.910156 7.320312 7.070312 C 7.160156 7.230469 7.039062 7.417969 6.949219 7.628906 C 6.863281 7.839844 6.820312 8.058594 6.820312 8.289062 L 6.820312 9.550781 C 6.828125 9.816406 6.886719 10.0625 7.003906 10.300781 C 7.121094 10.535156 7.277344 10.738281 7.480469 10.902344 C 7.683594 11.066406 7.910156 11.183594 8.164062 11.25 C 8.417969 11.3125 8.671875 11.324219 8.929688 11.277344 L 9.9375 32.289062 C 9.957031 32.660156 10.039062 33.011719 10.191406 33.347656 C 10.34375 33.683594 10.554688 33.976562 10.816406 34.230469 C 11.082031 34.488281 11.386719 34.683594 11.726562 34.820312 C 12.066406 34.957031 12.417969 35.023438 12.785156 35.023438 L 24.863281 35.023438 C 25.230469 35.023438 25.585938 34.957031 25.925781 34.820312 C 26.265625 34.683594 26.566406 34.488281 26.832031 34.230469 C 27.097656 33.976562 27.304688 33.683594 27.457031 33.347656 C 27.609375 33.011719 27.695312 32.660156 27.710938 32.289062 L 28.722656 11.277344 C 28.976562 11.324219 29.234375 11.3125 29.484375 11.25 C 29.738281 11.183594 29.964844 11.066406 30.167969 10.902344 C 30.371094 10.738281 30.53125 10.535156 30.644531 10.300781 C 30.761719 10.0625 30.824219 9.816406 30.832031 9.550781 L 30.832031 8.289062 C 30.832031 8.058594 30.785156 7.839844 30.699219 7.628906 C 30.613281 7.417969 30.488281 7.230469 30.328125 7.070312 C 30.167969 6.910156 29.984375 6.785156 29.773438 6.695312 C 29.566406 6.609375 29.347656 6.566406 29.121094 6.566406 Z M 13.972656 4.574219 C 13.972656 4.414062 14.027344 4.28125 14.136719 4.167969 C 14.25 4.054688 14.382812 4 14.542969 4 L 23.109375 4 C 23.265625 4 23.402344 4.054688 23.511719 4.167969 C 23.625 4.28125 23.679688 4.414062 23.679688 4.574219 L 23.679688 6.566406 L 13.972656 6.566406 Z M 26.574219 32.234375 C 26.5625 32.457031 26.511719 32.667969 26.421875 32.867188 C 26.328125 33.070312 26.203125 33.246094 26.046875 33.398438 C 25.886719 33.554688 25.703125 33.671875 25.5 33.753906 C 25.296875 33.835938 25.085938 33.875 24.863281 33.875 L 12.785156 33.875 C 12.566406 33.875 12.355469 33.835938 12.148438 33.753906 C 11.945312 33.671875 11.765625 33.554688 11.605469 33.398438 C 11.445312 33.246094 11.320312 33.070312 11.230469 32.867188 C 11.140625 32.667969 11.089844 32.457031 11.078125 32.234375 L 10.070312 11.277344 L 27.578125 11.277344 Z M 29.691406 9.550781 C 29.691406 9.710938 29.636719 9.847656 29.523438 9.957031 C 29.414062 10.070312 29.277344 10.125 29.121094 10.125 L 8.53125 10.125 C 8.371094 10.125 8.238281 10.070312 8.128906 9.957031 C 8.015625 9.847656 7.960938 9.710938 7.960938 9.550781 L 7.960938 8.289062 C 7.960938 8.128906 8.015625 7.992188 8.128906 7.882812 C 8.238281 7.769531 8.371094 7.714844 8.53125 7.714844 L 29.121094 7.714844 C 29.277344 7.714844 29.414062 7.769531 29.523438 7.882812 C 29.636719 7.992188 29.691406 8.128906 29.691406 8.289062 Z M 29.691406 9.550781 " fill-opacity="1" fill-rule="nonzero"/></g><path fill="#000000" d="M 18.824219 29.085938 C 18.984375 29.085938 19.117188 29.03125 19.226562 28.917969 C 19.339844 28.804688 19.394531 28.671875 19.394531 28.511719 L 19.394531 16.636719 C 19.394531 16.480469 19.339844 16.34375 19.226562 16.230469 C 19.117188 16.121094 18.984375 16.0625 18.824219 16.0625 C 18.667969 16.0625 18.535156 16.121094 18.421875 16.230469 C 18.3125 16.34375 18.253906 16.480469 18.253906 16.636719 L 18.253906 28.511719 C 18.253906 28.671875 18.3125 28.804688 18.421875 28.917969 C 18.535156 29.03125 18.667969 29.085938 18.824219 29.085938 Z M 18.824219 29.085938 " fill-opacity="1" fill-rule="nonzero"/><path fill="#000000" d="M 23.386719 29.085938 C 23.542969 29.085938 23.675781 29.03125 23.789062 28.917969 C 23.898438 28.804688 23.957031 28.671875 23.957031 28.511719 L 23.957031 16.636719 C 23.957031 16.480469 23.898438 16.34375 23.789062 16.230469 C 23.675781 16.121094 23.542969 16.0625 23.386719 16.0625 C 23.230469 16.0625 23.09375 16.121094 22.984375 16.230469 C 22.871094 16.34375 22.816406 16.480469 22.816406 16.636719 L 22.816406 28.511719 C 22.816406 28.671875 22.871094 28.804688 22.984375 28.917969 C 23.09375 29.03125 23.230469 29.085938 23.386719 29.085938 Z M 23.386719 29.085938 " fill-opacity="1" fill-rule="nonzero"/><path fill="#000000" d="M 14.265625 29.085938 C 14.421875 29.085938 14.554688 29.03125 14.667969 28.917969 C 14.777344 28.804688 14.835938 28.671875 14.835938 28.511719 L 14.835938 16.636719 C 14.835938 16.480469 14.777344 16.34375 14.667969 16.230469 C 14.554688 16.121094 14.421875 16.0625 14.265625 16.0625 C 14.105469 16.0625 13.972656 16.121094 13.863281 16.230469 C 13.75 16.34375 13.695312 16.480469 13.695312 16.636719 L 13.695312 28.511719 C 13.695312 28.671875 13.75 28.804688 13.863281 28.917969 C 13.972656 29.03125 14.105469 29.085938 14.265625 29.085938 Z M 14.265625 29.085938 " fill-opacity="1" fill-rule="nonzero"/></svg>